<svg id="visual" viewBox="0 0 1920 1080" width="1920" height="1080" xmlns="http://www.w3.org/2000/svg" xmlns:xlink="http://www.w3.org/1999/xlink" version="1.1"><path d="M0 869L45.7 871.7C91.3 874.3 182.7 879.7 274.2 878.2C365.7 876.7 457.3 868.3 548.8 874.7C640.3 881 731.7 902 823 904.7C914.3 907.3 1005.7 891.7 1097 877C1188.3 862.3 1279.7 848.7 1371.2 852C1462.7 855.3 1554.3 875.7 1645.8 876C1737.3 876.3 1828.7 856.7 1874.3 846.8L1920 837L1920 1081L1874.3 1081C1828.7 1081 1737.3 1081 1645.8 1081C1554.3 1081 1462.7 1081 1371.2 1081C1279.7 1081 1188.3 1081 1097 1081C1005.7 1081 914.3 1081 823 1081C731.7 1081 640.3 1081 548.8 1081C457.3 1081 365.7 1081 274.2 1081C182.7 1081 91.3 1081 45.7 1081L0 1081Z" fill="#41e3ff"></path><path d="M0 956L45.7 946.3C91.3 936.7 182.7 917.3 274.2 905C365.7 892.7 457.3 887.3 548.8 893.5C640.3 899.7 731.7 917.3 823 918.8C914.3 920.3 1005.7 905.7 1097 903.2C1188.3 900.7 1279.7 910.3 1371.2 915.3C1462.7 920.3 1554.3 920.7 1645.8 915.5C1737.3 910.3 1828.7 899.7 1874.3 894.3L1920 889L1920 1081L1874.3 1081C1828.7 1081 1737.3 1081 1645.8 1081C1554.3 1081 1462.7 1081 1371.2 1081C1279.7 1081 1188.3 1081 1097 1081C1005.7 1081 914.3 1081 823 1081C731.7 1081 640.3 1081 548.8 1081C457.3 1081 365.7 1081 274.2 1081C182.7 1081 91.3 1081 45.7 1081L0 1081Z" fill="#00a7ea"></path><path d="M0 972L45.7 976C91.3 980 182.7 988 274.2 990.8C365.7 993.7 457.3 991.3 548.8 990.7C640.3 990 731.7 991 823 981.3C914.3 971.7 1005.7 951.3 1097 953C1188.3 954.7 1279.7 978.3 1371.2 990.5C1462.7 1002.7 1554.3 1003.3 1645.8 1002.8C1737.3 1002.3 1828.7 1000.7 1874.3 999.8L1920 999L1920 1081L1874.3 1081C1828.7 1081 1737.3 1081 1645.8 1081C1554.3 1081 1462.7 1081 1371.2 1081C1279.7 1081 1188.3 1081 1097 1081C1005.7 1081 914.3 1081 823 1081C731.7 1081 640.3 1081 548.8 1081C457.3 1081 365.7 1081 274.2 1081C182.7 1081 91.3 1081 45.7 1081L0 1081Z" fill="#0067c2"></path><path d="M0 1018L45.7 1015.8C91.3 1013.7 182.7 1009.3 274.2 1010.7C365.7 1012 457.3 1019 548.8 1023C640.3 1027 731.7 1028 823 1030C914.3 1032 1005.7 1035 1097 1028.8C1188.3 1022.7 1279.7 1007.3 1371.2 1001.3C1462.7 995.3 1554.3 998.7 1645.8 999C1737.3 999.3 1828.7 996.7 1874.3 995.3L1920 994L1920 1081L1874.3 1081C1828.7 1081 1737.3 1081 1645.8 1081C1554.3 1081 1462.7 1081 1371.2 1081C1279.7 1081 1188.3 1081 1097 1081C1005.7 1081 914.3 1081 823 1081C731.7 1081 640.3 1081 548.8 1081C457.3 1081 365.7 1081 274.2 1081C182.7 1081 91.3 1081 45.7 1081L0 1081Z" fill="#00268d"></path></svg>